HIERARCHY
ROOT hip
{
  OFFSET 0.00112043 5.09927 -9.65472
  CHANNELS 6 Xposition Yposition Zposition Zrotation Xrotation Yrotation
  JOINT abdomen
  {
    OFFSET 0 -1.186 -1.5018
    CHANNELS 3 Zrotation Xrotation Yrotation
    JOINT abdomen2
    {
      OFFSET 0 9.964 0.2134
      CHANNELS 3 Zrotation Xrotation Yrotation
      JOINT chest
      {
        OFFSET 0 13.134 -3.2573
        CHANNELS 3 Zrotation Xrotation Yrotation
        JOINT neck
        {
          OFFSET 0 20.686 -1.6905
          CHANNELS 3 Zrotation Xrotation Yrotation
          JOINT head
          {
            OFFSET 0 7.238 -0.1237
            CHANNELS 3 Zrotation Xrotation Yrotation
            End Site
            {
              OFFSET 0 0 0
            }
          }
        }
        JOINT lCollar
        {
          OFFSET 1.7069 20.075 5.0056
          CHANNELS 3 Zrotation Xrotation Yrotation
          JOINT lShldr
          {
            OFFSET 13.6458 -0.047 -4.849
            CHANNELS 3 Zrotation Xrotation Yrotation
            JOINT lForeArm
            {
              OFFSET 28.3255 -0.9759 2.2888
              CHANNELS 3 Zrotation Xrotation Yrotation
              JOINT lHand
              {
                OFFSET 22.1583 -0.53 10.8316
                CHANNELS 3 Zrotation Xrotation Yrotation
                JOINT lThumb1
                {
                  OFFSET 0.786 0.112 2.5817
                  CHANNELS 3 Zrotation Xrotation Yrotation
                  JOINT lThumb2
                  {
                    OFFSET 0.3601 -0.878 4.2331
                    CHANNELS 3 Zrotation Xrotation Yrotation
                    JOINT lThumb2_End
                    {
                      OFFSET 1.8127 -1.216 2.2227
                      CHANNELS 3 Zrotation Xrotation Yrotation
                      End Site
                      {
                        OFFSET 0.0181 -0.0122 0.0222
                      }
                    }
                  }
                }
                JOINT lCarpal1
                {
                  OFFSET 0.9571 1.114 1.7695
                  CHANNELS 3 Zrotation Xrotation Yrotation
                  JOINT lIndex1
                  {
                    OFFSET 4.1246 0.487 4.1451
                    CHANNELS 3 Zrotation Xrotation Yrotation
                    JOINT lIndex2
                    {
                      OFFSET 3.4052 -1.454 2.7682
                      CHANNELS 3 Zrotation Xrotation Yrotation
                      JOINT lIndex2_End
                      {
                        OFFSET 1.4531 -1.795 1.2713
                        CHANNELS 3 Zrotation Xrotation Yrotation
                        End Site
                        {
                          OFFSET 0.0145 -0.0179 0.0127
                        }
                      }
                    }
                  }
                  JOINT lMid1
                  {
                    OFFSET 5.6954 0.21 2.1184
                    CHANNELS 3 Zrotation Xrotation Yrotation
                    JOINT lMid2
                    {
                      OFFSET 3.9766 -1.54 2.3863
                      CHANNELS 3 Zrotation Xrotation Yrotation
                      JOINT lMid2_End
                      {
                        OFFSET 1.4042 -1.926 1.125
                        CHANNELS 3 Zrotation Xrotation Yrotation
                        End Site
                        {
                          OFFSET 0.014 -0.0193 0.0113
                        }
                      }
                    }
                  }
                }
                JOINT lCarpal2
                {
                  OFFSET 2.0956 0.66 -0.3894
                  CHANNELS 3 Zrotation Xrotation Yrotation
                  JOINT lRing1
                  {
                    OFFSET 5.0395 -0.09 2.4971
                    CHANNELS 3 Zrotation Xrotation Yrotation
                    JOINT lRing2
                    {
                      OFFSET 3.7921 -1.552 1.4806
                      CHANNELS 3 Zrotation Xrotation Yrotation
                      JOINT lRing2_End
                      {
                        OFFSET 1.4655 -1.808 0.9609
                        CHANNELS 3 Zrotation Xrotation Yrotation
                        End Site
                        {
                          OFFSET 0.0147 -0.0181 0.0096
                        }
                      }
                    }
                  }
                  JOINT lPinky1
                  {
                    OFFSET 4.9141 -1.269 0.3591
                    CHANNELS 3 Zrotation Xrotation Yrotation
                    JOINT lPinky2
                    {
                      OFFSET 3.1477 -1.685 0.8462
                      CHANNELS 3 Zrotation Xrotation Yrotation
                      JOINT lPinky2_End
                      {
                        OFFSET 0.8055 -1.585 0.7955
                        CHANNELS 3 Zrotation Xrotation Yrotation
                        End Site
                        {
                          OFFSET 0.0081 -0.0158 0.008
                        }
                      }
                    }
                  }
                }
              }
            }
          }
        }
        JOINT rCollar
        {
          OFFSET -1.7069 20.075 5.0056
          CHANNELS 3 Zrotation Xrotation Yrotation
          JOINT rShldr
          {
            OFFSET -13.6458 -0.047 -4.849
            CHANNELS 3 Zrotation Xrotation Yrotation
            JOINT rForeArm
            {
              OFFSET -28.3255 -0.9759 2.2888
              CHANNELS 3 Zrotation Xrotation Yrotation
              JOINT rHand
              {
                OFFSET -22.1583 -0.53 10.8316
                CHANNELS 3 Zrotation Xrotation Yrotation
                JOINT rThumb1
                {
                  OFFSET -0.786 0.112 2.5817
                  CHANNELS 3 Zrotation Xrotation Yrotation
                  JOINT rThumb2
                  {
                    OFFSET -0.3601 -0.878 4.2331
                    CHANNELS 3 Zrotation Xrotation Yrotation
                    JOINT rThumb2_End
                    {
                      OFFSET -1.8127 -1.216 2.2227
                      CHANNELS 3 Zrotation Xrotation Yrotation
                      End Site
                      {
                        OFFSET -0.0181 -0.0122 0.0222
                      }
                    }
                  }
                }
                JOINT rCarpal1
                {
                  OFFSET -0.9571 1.114 1.7695
                  CHANNELS 3 Zrotation Xrotation Yrotation
                  JOINT rIndex1
                  {
                    OFFSET -4.1246 0.487 4.1451
                    CHANNELS 3 Zrotation Xrotation Yrotation
                    JOINT rIndex2
                    {
                      OFFSET -3.4052 -1.454 2.7682
                      CHANNELS 3 Zrotation Xrotation Yrotation
                      JOINT rIndex2_End
                      {
                        OFFSET -1.4531 -1.795 1.2713
                        CHANNELS 3 Zrotation Xrotation Yrotation
                        End Site
                        {
                          OFFSET -0.0145 -0.018 0.0127
                        }
                      }
                    }
                  }
                  JOINT rMid1
                  {
                    OFFSET -5.6954 0.21 2.1184
                    CHANNELS 3 Zrotation Xrotation Yrotation
                    JOINT rMid2
                    {
                      OFFSET -3.9766 -1.54 2.3863
                      CHANNELS 3 Zrotation Xrotation Yrotation
                      JOINT rMid2_End
                      {
                        OFFSET -1.4042 -1.926 1.125
                        CHANNELS 3 Zrotation Xrotation Yrotation
                        End Site
                        {
                          OFFSET -0.014 -0.0193 0.0113
                        }
                      }
                    }
                  }
                }
                JOINT rCarpal2
                {
                  OFFSET -2.0956 0.66 -0.3894
                  CHANNELS 3 Zrotation Xrotation Yrotation
                  JOINT rRing1
                  {
                    OFFSET -5.0395 -0.09 2.4971
                    CHANNELS 3 Zrotation Xrotation Yrotation
                    JOINT rRing2
                    {
                      OFFSET -3.7921 -1.552 1.4806
                      CHANNELS 3 Zrotation Xrotation Yrotation
                      JOINT rRing2_End
                      {
                        OFFSET -1.4655 -1.808 0.9609
                        CHANNELS 3 Zrotation Xrotation Yrotation
                        End Site
                        {
                          OFFSET -0.0147 -0.0181 0.0096
                        }
                      }
                    }
                  }
                  JOINT rPinky1
                  {
                    OFFSET -4.9141 -1.269 0.3592
                    CHANNELS 3 Zrotation Xrotation Yrotation
                    JOINT rPinky2
                    {
                      OFFSET -3.1477 -1.685 0.8462
                      CHANNELS 3 Zrotation Xrotation Yrotation
                      JOINT rPinky2_End
                      {
                        OFFSET -0.8055 -1.585 0.7955
                        CHANNELS 3 Zrotation Xrotation Yrotation
                        End Site
                        {
                          OFFSET -0.0081 -0.0158 0.008
                        }
                      }
                    }
                  }
                }
              }
            }
          }
        }
      }
    }
  }
  JOINT lThigh
  {
    OFFSET 8.367 -8.2066 0.5982
    CHANNELS 3 Zrotation Xrotation Yrotation
    JOINT lShin
    {
      OFFSET 2.1923 -43.463 -0.4932
      CHANNELS 3 Zrotation Xrotation Yrotation
      JOINT lFoot
      {
        OFFSET 0.7333 -45.8593 -2.6451
        CHANNELS 3 Zrotation Xrotation Yrotation
        End Site
        {
          OFFSET 2.6618 -4.2699 12.3931
        }
      }
    }
  }
  JOINT rThigh
  {
    OFFSET -8.367 -8.2066 0.5982
    CHANNELS 3 Zrotation Xrotation Yrotation
    JOINT rShin
    {
      OFFSET -2.1923 -43.463 -0.4931
      CHANNELS 3 Zrotation Xrotation Yrotation
      JOINT rFoot
      {
        OFFSET -0.7333 -45.8593 -2.6451
        CHANNELS 3 Zrotation Xrotation Yrotation
        End Site
        {
          OFFSET -2.6618 -4.2699 12.3931
        }
      }
    }
  }
}
MOTION
Frames:	4
Frame Time:	0.0333333
-47.5999 1.73225 -10.9157 -180 -89.9981 -180 -0.671199 8.11503 0.155347 -1.38609 16.2276 0.414184 -1.38609 16.2276 0.414185 -0.00010402 17.9987 3.19835e-005 26.2197 -7.20279 3.53157 15.5839 3.59581 16.812 -38.5342 29.7438 45.5501 32.5246 2.24882 -25.2032 2.8192 24.3792 -2.64242 7.95139e-016 -6.36111e-015 -1.59028e-015 7.95139e-016 -6.36111e-015 -3.18055e-015 -8.82781e-032 -3.18055e-015 -1.59028e-015 7.95139e-016 -3.18055e-015 -1.59028e-015 7.06225e-031 -6.36111e-015 6.36111e-015 7.95139e-016 -6.36111e-015 -1.59028e-015 -2.38542e-015 -3.18055e-015 -1.59028e-015 7.06225e-031 -6.36111e-015 6.36111e-015 7.95139e-016 -6.36111e-015 -1.59028e-015 -2.38542e-015 -3.18055e-015 -1.59028e-015 7.95139e-016 -3.18055e-015 -1.59028e-015 7.06225e-031 -6.36111e-015 6.36111e-015 7.95139e-016 -6.36111e-015 -1.59028e-015 -2.38542e-015 -3.18055e-015 -1.59028e-015 7.06225e-031 -6.36111e-015 6.36111e-015 7.95139e-016 -6.36111e-015 -1.59028e-015 -2.38542e-015 -3.18055e-015 -1.59028e-015 -0.60742 0.433275 -8.61063 75.8927 1.42002 -35.2984 -9.04273 -18.9667 120.634 13.0816 -6.67701 9.03165 3.44999e-007 -5.79603e-007 -5.211e-007 -3.44999e-007 5.79603e-007 5.211e-007 -6.36111e-015 3.18055e-015 -6.36111e-015 -3.53113e-031 -3.18055e-015 -6.36111e-015 3.44999e-007 -5.79603e-007 -5.211e-007 -3.44999e-007 5.79603e-007 5.211e-007 -3.18055e-015 3.18055e-015 -9.54166e-015 3.44999e-007 -5.79603e-007 -5.211e-007 -3.44999e-007 5.79603e-007 5.211e-007 -3.18055e-015 3.18055e-015 -9.54166e-015 -3.53113e-031 -3.18055e-015 -6.36111e-015 3.44999e-007 -5.79603e-007 -5.211e-007 -3.44999e-007 5.79603e-007 5.211e-007 -3.18055e-015 3.18055e-015 -9.54166e-015 3.44999e-007 -5.79603e-007 -5.211e-007 -3.44999e-007 5.79603e-007 5.211e-007 -3.18055e-015 3.18055e-015 -9.54166e-015 14.432 0.557899 1.27329 -1.31546 4.64483 2.01274 1.4975 34.4381 9.89936 -11.6893 -32.4627 -17.8082 15.6532 82.6677 -19.0992 4.26352 21.1323 9.16535 
-47.5968 1.73227 -10.9228 -180 -89.9981 -180 -0.671199 8.11503 0.155347 -1.38609 16.2276 0.414184 -1.38609 16.2276 0.414185 -6.90197e-005 17.9986 2.18673e-005 26.1783 -6.50334 3.18493 15.5839 3.59581 16.812 -38.5342 29.7438 45.5501 32.5246 2.24882 -25.2032 2.8192 24.3792 -2.64243 1.59028e-015 0 -0 7.95139e-016 3.18055e-015 1.59028e-015 1.59028e-015 0 1.59028e-015 -1.59028e-015 -3.18055e-015 -1.59028e-015 2.38542e-015 -3.18055e-015 6.36111e-015 4.77083e-015 3.18055e-015 -0 3.97569e-015 -3.18055e-015 -0 2.38542e-015 -3.18055e-015 6.36111e-015 4.77083e-015 3.18055e-015 -0 3.97569e-015 -3.18055e-015 -0 -1.59028e-015 -3.18055e-015 -1.59028e-015 2.38542e-015 -3.18055e-015 6.36111e-015 4.77083e-015 3.18055e-015 -0 3.97569e-015 -3.18055e-015 -0 2.38542e-015 -3.18055e-015 6.36111e-015 4.77083e-015 3.18055e-015 -0 3.97569e-015 -3.18055e-015 -0 -0.60742 0.433275 -8.61063 75.8927 1.42001 -35.2984 -9.1594 -18.9034 120.276 12.9625 -6.47688 8.96473 -3.4786e-007 5.78435e-007 5.20424e-007 -9.54166e-015 -3.18055e-015 1.27222e-014 -6.9572e-007 1.15687e-006 1.04085e-006 6.36111e-015 -3.18055e-015 -0 -3.4786e-007 5.78435e-007 5.20424e-007 -6.36111e-015 -3.18055e-015 1.27222e-014 -6.9572e-007 1.15687e-006 1.04085e-006 -3.4786e-007 5.78435e-007 5.20424e-007 -6.36111e-015 -3.18055e-015 1.27222e-014 -6.9572e-007 1.15687e-006 1.04085e-006 6.36111e-015 -3.18055e-015 -0 -3.4786e-007 5.78435e-007 5.20424e-007 -6.36111e-015 -3.18055e-015 1.27222e-014 -6.9572e-007 1.15687e-006 1.04085e-006 -3.4786e-007 5.78435e-007 5.20424e-007 -6.36111e-015 -3.18055e-015 1.27222e-014 -6.9572e-007 1.15687e-006 1.04085e-006 14.4276 0.621643 1.27485 -1.31504 4.52007 2.01038 1.5038 34.4989 9.89693 -11.6256 -32.3643 -17.6961 15.0879 82.3842 -18.5117 4.26007 21.1105 9.17788 
-47.5938 1.73227 -10.9298 -180 -89.9981 -180 -0.671199 8.11503 0.155347 -1.38609 16.2276 0.414184 -1.38609 16.2276 0.414185 -1.08506e-006 17.9984 -1.25471e-007 26.1414 -5.8048 2.83983 15.5839 3.59581 16.812 -38.5342 29.7438 45.5501 32.5246 2.24882 -25.2032 2.8192 24.3792 -2.64242 7.95139e-016 -6.36111e-015 -1.59028e-015 7.95139e-016 -6.36111e-015 -3.18055e-015 -8.82781e-032 -3.18055e-015 -1.59028e-015 7.95139e-016 -3.18055e-015 -1.59028e-015 7.06225e-031 -6.36111e-015 6.36111e-015 7.95139e-016 -6.36111e-015 -1.59028e-015 -2.38542e-015 -3.18055e-015 -1.59028e-015 7.06225e-031 -6.36111e-015 6.36111e-015 7.95139e-016 -6.36111e-015 -1.59028e-015 -2.38542e-015 -3.18055e-015 -1.59028e-015 7.95139e-016 -3.18055e-015 -1.59028e-015 7.06225e-031 -6.36111e-015 6.36111e-015 7.95139e-016 -6.36111e-015 -1.59028e-015 -2.38542e-015 -3.18055e-015 -1.59028e-015 7.06225e-031 -6.36111e-015 6.36111e-015 7.95139e-016 -6.36111e-015 -1.59028e-015 -2.38542e-015 -3.18055e-015 -1.59028e-015 -0.60742 0.433275 -8.61063 75.8927 1.42002 -35.2984 -9.27565 -18.8395 119.917 12.8436 -6.27651 8.89822 -3.18055e-015 3.18055e-015 -3.18055e-015 5.15056e-007 -1.18034e-006 1.92661e-006 -3.53113e-031 6.36111e-015 3.18055e-015 -3.18055e-015 3.18055e-015 -3.18055e-015 0 6.36111e-015 -0 5.15056e-007 -1.18034e-006 1.92661e-006 0 9.54166e-015 -0 0 6.36111e-015 -0 5.15056e-007 -1.18034e-006 1.92661e-006 0 9.54166e-015 -0 -3.18055e-015 3.18055e-015 -3.18055e-015 0 6.36111e-015 -0 5.15056e-007 -1.18034e-006 1.92661e-006 0 9.54166e-015 -0 0 6.36111e-015 -0 5.15056e-007 -1.18034e-006 1.92661e-006 0 9.54166e-015 -0 14.4245 0.621238 1.27512 -1.31498 4.52021 2.01152 1.50759 34.4989 9.89556 -11.5622 -32.2661 -17.5843 14.5612 82.1 -17.9629 4.25659 21.0888 9.19039 
-47.5908 1.73224 -10.9369 -180 -89.9981 -180 -0.671199 8.11503 0.155346 -1.38609 16.2276 0.414184 -1.38609 16.2276 0.414184 -4.11607e-006 17.9984 9.19431e-007 26.1087 -5.10727 2.49617 15.5839 3.59581 16.812 -38.5342 29.7438 45.5501 32.5246 2.24882 -25.2032 2.8192 24.3792 -2.64243 7.95139e-016 -3.18055e-015 1.59028e-015 1.76556e-031 -3.18055e-015 3.18055e-015 -7.95139e-016 0 -0 7.95139e-016 -3.18055e-015 -0 -7.95139e-016 0 9.54166e-015 1.76556e-031 -3.18055e-015 3.18055e-015 -7.95139e-016 -3.18055e-015 6.36111e-015 -7.95139e-016 0 9.54166e-015 1.76556e-031 -3.18055e-015 3.18055e-015 -7.95139e-016 -3.18055e-015 6.36111e-015 7.95139e-016 -3.18055e-015 -0 -7.95139e-016 0 9.54166e-015 1.76556e-031 -3.18055e-015 3.18055e-015 -7.95139e-016 -3.18055e-015 6.36111e-015 -7.95139e-016 0 9.54166e-015 1.76556e-031 -3.18055e-015 3.18055e-015 -7.95139e-016 -3.18055e-015 6.36111e-015 -0.60742 0.433275 -8.61063 75.8927 1.42001 -35.2984 -9.39139 -18.7749 119.56 12.725 -6.07592 8.83212 -3.18055e-015 -6.36111e-015 9.54166e-015 -6.36111e-015 3.18055e-015 3.18055e-015 -3.18055e-015 3.18055e-015 -0 -3.18055e-015 -6.36111e-015 9.54166e-015 -3.18055e-015 0 3.18055e-015 -6.36111e-015 -9.54166e-015 -0 -6.36111e-015 -3.18055e-015 -6.36111e-015 -3.18055e-015 0 3.18055e-015 -6.36111e-015 -9.54166e-015 -0 -6.36111e-015 -3.18055e-015 -6.36111e-015 -3.18055e-015 -6.36111e-015 9.54166e-015 -3.18055e-015 0 3.18055e-015 -6.36111e-015 -9.54166e-015 -0 -6.36111e-015 -3.18055e-015 -6.36111e-015 -3.18055e-015 0 3.18055e-015 -6.36111e-015 -9.54166e-015 -0 -6.36111e-015 -3.18055e-015 -6.36111e-015 14.4215 0.620728 1.27538 -1.3149 4.5204 2.01268 1.5114 34.4991 9.89419 -11.4991 -32.1679 -17.4728 14.0714 81.8153 -17.4512 4.25316 21.0671 9.20284 
